<?xml version="1.0" encoding="UTF-8" standalone="no"?>
<svg
   version="1.1"
   xml:space="preserve"
   width="34"
   height="34"
   viewBox="0 0 34 34"
   id="svg25"
   xmlns="http://www.w3.org/2000/svg"
   xmlns:svg="http://www.w3.org/2000/svg"><defs
   id="defs25" />
<!-- END OF HEADER -->




























<path
   style="fill:none;stroke:#3282be;stroke-linecap:round;stroke-linejoin:round;stroke-opacity:1"
   d="M 2.8844074,16.999998 9.942205,4.7755357"
   id="path42" /><path
   style="fill:none;stroke:#56a0ce;stroke-linecap:round;stroke-linejoin:round;stroke-opacity:1"
   d="M 9.9422038,29.224462 2.8844074,16.999998"
   id="path41" /><path
   style="fill:none;stroke:#85bcdc;stroke-linecap:round;stroke-linejoin:round;stroke-opacity:1"
   d="M 24.057798,29.224462 H 9.9422038"
   id="path40" /><path
   style="fill:none;stroke:#08306b;stroke-linecap:round;stroke-linejoin:round;stroke-opacity:1"
   d="M 31.115596,17 24.057798,29.224462"
   id="path39" /><path
   style="fill:none;stroke:#084184;stroke-linecap:round;stroke-linejoin:round;stroke-opacity:1"
   d="M 24.057799,4.7755364 31.115596,17"
   id="path38" /><path
   style="fill:none;stroke:#1461a8;stroke-linecap:round;stroke-linejoin:round;stroke-opacity:1"
   d="m 9.942205,4.7755357 14.115594,7e-7"
   id="path27" /><path
   style="fill:none;stroke:#2171b5;stroke-opacity:1"
   d="M 9.0451855,12.40728 C 10.633235,9.6626291 13.600978,7.8160973 17.000001,7.8160973"
   id="path51" /><path
   style="fill:none;stroke:#4292c6;stroke-opacity:1"
   d="M 9.0435676,21.593649 C 8.2665396,20.255415 7.8160983,18.69279 7.8160982,17 c -1e-7,-1.673106 0.4473994,-3.241717 1.2290873,-4.59272"
   id="path50" /><path
   style="fill:none;stroke:#6baed6;stroke-opacity:1"
   d="m 17.000001,26.183902 c -3.321063,0 -6.342887,-1.811328 -7.9564334,-4.590253"
   id="path49" /><path
   style="fill:none;stroke:#9ecae1;stroke-opacity:1"
   d="m 24.954819,21.592715 c -1.58071,2.73197 -4.549259,4.591187 -7.954818,4.591187"
   id="path48" /><path
   style="fill:none;stroke:#083877;stroke-opacity:1"
   d="m 24.954819,12.407284 c 0.781686,1.351002 1.229085,2.919611 1.229085,4.592716 0,1.673104 -0.447399,3.241712 -1.229085,4.592715"
   id="path47" /><path
   style="fill:none;stroke:#08519c;stroke-opacity:1"
   d="m 17.000001,7.8160973 c 3.399025,0 6.366769,1.8465335 7.954818,4.5911867"
   id="path26" /><path
   id="path28"
   style="fill:#4292c6;fill-opacity:1;stroke-linecap:round;stroke-linejoin:round"
   d="m 5.3844074,16.999998 a 2.5,2.5 0 0 1 -2.5,2.5 2.5,2.5 0 0 1 -2.50000001,-2.5 2.5,2.5 0 0 1 2.50000001,-2.5 2.5,2.5 0 0 1 2.5,2.5 z" /><path
   id="circle34"
   style="fill:#6baed6;fill-opacity:1;stroke-linecap:round;stroke-linejoin:round"
   d="m 12.442204,29.224462 a 2.5,2.5 0 0 1 -2.5000005,2.5 2.5,2.5 0 0 1 -2.5,-2.5 2.5,2.5 0 0 1 2.5,-2.5 2.5,2.5 0 0 1 2.5000005,2.5 z" /><path
   id="circle35"
   style="fill:#9ecae1;fill-opacity:1;stroke-linecap:round;stroke-linejoin:round"
   d="m 26.557798,29.224462 a 2.5,2.5 0 0 1 -2.5,2.5 2.5,2.5 0 0 1 -2.5,-2.5 2.5,2.5 0 0 1 2.5,-2.5 2.5,2.5 0 0 1 2.5,2.5 z" /><path
   id="circle36"
   style="fill:#083877;fill-opacity:1;stroke-linecap:round;stroke-linejoin:round"
   d="m 33.615595,17 a 2.5,2.5 0 0 1 -2.5,2.5 2.5,2.5 0 0 1 -2.5,-2.5 2.5,2.5 0 0 1 2.5,-2.5 2.5,2.5 0 0 1 2.5,2.5 z" /><path
   id="circle37"
   style="fill:#08519c;fill-opacity:1;stroke-linecap:round;stroke-linejoin:round"
   d="m 26.557798,4.7755368 a 2.5,2.5 0 0 1 -2.5,2.5 2.5,2.5 0 0 1 -2.5,-2.5 2.5,2.5 0 0 1 2.5,-2.5 2.5,2.5 0 0 1 2.5,2.5 z" /><path
   id="circle38"
   style="fill:#2171b5;fill-opacity:1;stroke-linecap:round;stroke-linejoin:round"
   d="m 12.442206,4.7755361 a 2.5,2.5 0 0 1 -2.5000006,2.5 2.5,2.5 0 0 1 -2.5,-2.5 2.5,2.5 0 0 1 2.5,-2.5 2.5,2.5 0 0 1 2.5000006,2.5 z" /></svg>
