<?xml version="1.0" encoding="UTF-8" standalone="no"?>
<svg
   version="1.1"
   xml:space="preserve"
   width="34"
   height="34"
   viewBox="0 0 34 34"
   id="svg25"
   sodipodi:docname="intermol.svg"
   inkscape:version="1.4.2 (f4327f4, 2025-05-13)"
   inkscape:export-filename="intermol-bg.png"
   inkscape:export-xdpi="96"
   inkscape:export-ydpi="96"
   xmlns:inkscape="http://www.inkscape.org/namespaces/inkscape"
   xmlns:sodipodi="http://sodipodi.sourceforge.net/DTD/sodipodi-0.dtd"
   xmlns="http://www.w3.org/2000/svg"
   xmlns:svg="http://www.w3.org/2000/svg"><sodipodi:namedview
   id="namedview1"
   pagecolor="#ffffff"
   bordercolor="#000000"
   borderopacity="0.25"
   inkscape:showpageshadow="2"
   inkscape:pageopacity="0.0"
   inkscape:pagecheckerboard="0"
   inkscape:deskcolor="#d1d1d1"
   inkscape:zoom="22.529412"
   inkscape:cx="17"
   inkscape:cy="17"
   inkscape:window-width="1920"
   inkscape:window-height="1010"
   inkscape:window-x="2553"
   inkscape:window-y="-6"
   inkscape:window-maximized="1"
   inkscape:current-layer="svg25"><inkscape:page
     x="0"
     y="0"
     width="34"
     height="34"
     id="page2"
     margin="0"
     bleed="0" /></sodipodi:namedview><defs
   id="defs25" />
<!-- END OF HEADER --><rect
   style="fill:#ffffff;fill-opacity:1;stroke:none;stroke-width:1.25;stroke-linecap:round;stroke-linejoin:round"
   id="rect1"
   width="34"
   height="34"
   x="0"
   y="0" />




























<path
   style="fill:none;stroke:#3282be;stroke-linecap:round;stroke-linejoin:round;stroke-opacity:1"
   d="M 2.8844063,16.999999 9.9422039,4.7755367"
   id="path42" /><path
   style="fill:none;stroke:#56a0ce;stroke-linecap:round;stroke-linejoin:round;stroke-opacity:1"
   d="M 9.9422027,29.224463 2.8844063,16.999999"
   id="path41" /><path
   style="fill:none;stroke:#85bcdc;stroke-linecap:round;stroke-linejoin:round;stroke-opacity:1"
   d="M 24.057797,29.224463 H 9.9422027"
   id="path40" /><path
   style="fill:none;fill-opacity:1;stroke:#08306b;stroke-linecap:round;stroke-linejoin:round;stroke-opacity:1"
   d="M 31.115595,17.000001 24.057797,29.224463"
   id="path39" /><path
   style="fill:none;stroke:#084184;stroke-linecap:round;stroke-linejoin:round;stroke-opacity:1"
   d="M 24.057798,4.7755374 31.115595,17.000001"
   id="path38" /><path
   style="fill:none;stroke:#1461a8;stroke-linecap:round;stroke-linejoin:round;stroke-opacity:1"
   d="m 9.9422039,4.7755367 14.1155941,7e-7"
   id="path27" /><path
   id="path26"
   style="fill:none;stroke:#000000;stroke-width:1.5;stroke-dasharray:none"
   d="M 26.183903,17.000001 A 9.1839027,9.1839027 0 0 1 17,26.183903 9.1839027,9.1839027 0 0 1 7.8160971,17.000001 9.1839027,9.1839027 0 0 1 17,7.816098 a 9.1839027,9.1839027 0 0 1 9.183903,9.183903 z" /><path
   id="path28"
   style="fill:#4292c6;fill-opacity:1;stroke-linecap:round;stroke-linejoin:round"
   d="m 5.3844063,16.999999 a 2.5,2.5 0 0 1 -2.5,2.5 2.5,2.5 0 0 1 -2.50000001,-2.5 2.5,2.5 0 0 1 2.50000001,-2.5 2.5,2.5 0 0 1 2.5,2.5 z" /><path
   id="circle34"
   style="fill:#6baed6;fill-opacity:1;stroke-linecap:round;stroke-linejoin:round"
   d="m 12.442203,29.224463 a 2.5,2.5 0 0 1 -2.5000006,2.5 2.5,2.5 0 0 1 -2.5,-2.5 2.5,2.5 0 0 1 2.5,-2.5 2.5,2.5 0 0 1 2.5000006,2.5 z" /><path
   id="circle35"
   style="fill:#9ecae1;fill-opacity:1;stroke-linecap:round;stroke-linejoin:round"
   d="m 26.557797,29.224463 a 2.5,2.5 0 0 1 -2.5,2.5 2.5,2.5 0 0 1 -2.5,-2.5 2.5,2.5 0 0 1 2.5,-2.5 2.5,2.5 0 0 1 2.5,2.5 z" /><path
   id="circle36"
   style="fill:#083877;fill-opacity:1;stroke-linecap:round;stroke-linejoin:round"
   d="m 33.615594,17.000001 a 2.5,2.5 0 0 1 -2.5,2.5 2.5,2.5 0 0 1 -2.5,-2.5 2.5,2.5 0 0 1 2.5,-2.5 2.5,2.5 0 0 1 2.5,2.5 z" /><path
   id="circle37"
   style="fill:#08519c;fill-opacity:1;stroke-linecap:round;stroke-linejoin:round"
   d="m 26.557797,4.7755375 a 2.5,2.5 0 0 1 -2.5,2.5 2.5,2.5 0 0 1 -2.5,-2.5 2.5,2.5 0 0 1 2.5,-2.4999999 2.5,2.5 0 0 1 2.5,2.4999999 z" /><path
   id="circle38"
   style="fill:#2171b5;fill-opacity:1;stroke-linecap:round;stroke-linejoin:round"
   d="m 12.442205,4.7755368 a 2.5,2.5 0 0 1 -2.5000007,2.5 2.5,2.5 0 0 1 -2.5,-2.5 2.5,2.5 0 0 1 2.5,-2.4999999 2.5,2.5 0 0 1 2.5000007,2.4999999 z" /><path
   style="fill:none;fill-opacity:1;stroke:#000000;stroke-width:1.45;stroke-linecap:round;stroke-linejoin:round;stroke-dasharray:none;stroke-opacity:1"
   d="m 24.953963,21.591138 6.161632,4.314619"
   id="path4" /><path
   style="fill:none;stroke:#000000;stroke-width:1.25;stroke-linecap:round;stroke-linejoin:round;stroke-dasharray:none;stroke-opacity:1"
   d="M 10.967,14.161535 C 11.946105,12.043648 14.267255,10.330197 16.644501,10.26"
   id="path51" /></svg>
